<svg version="1" xmlns="http://www.w3.org/2000/svg" width="800" height="800" viewBox="0 0 600.000000 600.000000"><path d="M51.1 85.2c-1.6.5-3.5 1.5-4.2 2.4-1.1 1.4-1.3 37.7-1.3 214.1v212.5L48 516c1.4 1.1 4.4 2.9 6.8 4 4.1 2.1 5.7 2.2 39.8 2.4 22 .1 36.8-.3 38.7-.9 1.7-.5 4-2.4 5.2-4 2-3 2-4.2 2-89.3l-.1-86.3 2.3-2.3c2.2-2.2 2.8-2.3 19-2.2 9.3.1 17.3.4 17.9.8.8.5 1 25.6 1 86-.1 78.9 0 85.6 1.6 88.9 1.1 2.3 2.9 4.1 5 5 1.8.7 3.6 1.7 3.9 2.1.3.5 1.9 1.1 3.5 1.4 3.8.8 71.2.8 74.3 0 3.4-.8 5.9-3.3 6.7-7 .4-1.7.8-95.8.9-209.1.1-196.9 0-206.2-1.7-210.1-1-2.2-3.1-5.5-4.6-7.4l-2.8-3.3-38.9-.1c-23.4-.1-40 .3-41.9.9-6.1 2-5.9-1-6 88.7-.1 44.9-.5 82-.9 82.5-1.1 1.1-35.7 1.3-37.7.3-1.3-.8-1.5-10.6-1.6-78.2-.1-42.5-.4-78.5-.7-80.1-.3-1.5-1.5-4-2.6-5.6-1.2-1.6-2.1-3.3-2.1-3.8 0-.6-.9-1.8-2-2.8-1.8-1.7-4.9-1.8-40.5-1.9-21.2-.1-39.8.2-41.4.6zM342.5 85.1c-3.9.6-5.6 2.5-6.5 6.9-.3 1.4-.5 96.4-.5 211.2.1 169 .3 209.1 1.4 211.1.7 1.3 3.9 3.7 7.1 5.2l5.7 2.7 34.9.2c39.7.2 42.7-.2 44-5.7.4-1.8.8-41.5.9-88.2.1-46.8.3-85.8.3-86.7.4-3.5 4.1-4.2 21.7-4.4 9.4-.1 17.7.2 18.5.7 1.3.7 1.5 11.5 1.5 87.7.1 74.3.3 87.2 1.5 88.7 2.5 3 8.4 6.2 13 7.1 2.5.5 19.9.9 38.6.9 30.3-.1 34.5-.3 36.8-1.8 5.2-3.4 5.6-6.7 5.6-38.7-.1-10.2-.1-23.7-.1-30 .1-6.3 0-16.5 0-22.5-.1-18.3-.1-23.7 0-30.5 0-4.9 0-121.3-.1-190.5 0-2.8.1-7 .1-9.5v-23-30.5c.3-43.7.1-46-3.8-52.8-1.7-3-3.8-6-4.7-6.8-1.2-1-10.1-1.2-40.2-1.2-21.3 0-39.9.2-41.3.6-5.5 1.4-5.3-1-5.4 88.2 0 45.3-.4 82.7-.8 83.2-1.3 1.2-39.7 1.1-40.5-.1-.4-.6-.7-36.7-.8-80.1l-.1-79-2.7-5.2c-1.5-2.8-3.4-5.7-4.2-6.4-1.2-.9-10.7-1.3-38.8-1.3-20.5-.1-39 .2-41.1.5z"/></svg>